<svg xmlns="http://www.w3.org/2000/svg" viewBox="0 0 1200 630" width="100%" height="100%">
  <defs>
    <!-- Background Gradient -->
    <linearGradient id="bgGrad" x1="0%" y1="0%" x2="0%" y2="100%">
      <stop offset="0%" stop-color="#050014" />
      <stop offset="60%" stop-color="#0d0221" />
      <stop offset="100%" stop-color="#190033" />
    </linearGradient>

    <!-- Retro Sun Gradient -->
    <linearGradient id="sunGrad" x1="0%" y1="0%" x2="0%" y2="100%">
      <stop offset="0%" stop-color="#ffd700" />
      <stop offset="30%" stop-color="#ff007f" />
      <stop offset="100%" stop-color="#8a2be2" />
    </linearGradient>

    <!-- Neon Cyan Glow -->
    <filter id="cyanGlow" x="-20%" y="-20%" width="140%" height="140%">
      <feGaussianBlur stdDeviation="6" result="blur" />
      <feMerge>
        <feMergeNode in="blur" />
        <feMergeNode in="SourceGraphic" />
      </feMerge>
    </filter>

    <!-- Neon Pink Glow -->
    <filter id="pinkGlow" x="-30%" y="-30%" width="160%" height="160%">
      <feGaussianBlur stdDeviation="8" result="blur" />
      <feColorMatrix type="matrix" values="
        1 0 0 0 1
        0 0.1 0 0 0.1
        0 0 0.5 0 0.5
        0 0 0 1 0" />
      <feMerge>
        <feMergeNode />
        <feMergeNode in="SourceGraphic" />
      </feMerge>
    </filter>
    
    <!-- Text Glow -->
    <filter id="textGlow" x="-20%" y="-20%" width="140%" height="140%">
      <feGaussianBlur stdDeviation="4" result="blur" />
      <feComponentTransfer in="blur" result="boost">
        <feFuncA type="linear" slope="1.5"/>
      </feComponentTransfer>
      <feMerge>
        <feMergeNode in="boost" />
        <feMergeNode in="SourceGraphic" />
      </feMerge>
    </filter>
  </defs>

  <!-- Background -->
  <rect width="1200" height="630" fill="url(#bgGrad)" />

  <!-- Stars -->
  <g fill="#ffffff" opacity="0.6">
    <circle cx="100" cy="80" r="1.5" />
    <circle cx="250" cy="150" r="1" />
    <circle cx="400" cy="90" r="2" />
    <circle cx="550" cy="180" r="1.5" />
    <circle cx="700" cy="100" r="1" />
    <circle cx="850" cy="130" r="2.5" />
    <circle cx="1000" cy="70" r="1.5" />
    <circle cx="1150" cy="160" r="1" />
    <circle cx="180" cy="220" r="1.5" />
    <circle cx="980" cy="240" r="2" />
    <circle cx="80" cy="350" r="1" />
    <circle cx="1120" cy="320" r="1.5" />
  </g>
  
  <!-- Glowing Constellations -->
  <g stroke="#00ffff" stroke-width="0.5" opacity="0.25">
    <line x1="400" y1="90" x2="550" y2="180" />
    <line x1="550" y1="180" x2="700" y2="100" />
    <line x1="100" y1="80" x2="250" y2="150" />
  </g>

  <!-- Glowing Grid Horizon (Perspective Ground) -->
  <g opacity="0.7">
    <!-- Horizon Line -->
    <line x1="0" y1="360" x2="1200" y2="360" stroke="#ff007f" stroke-width="3" filter="url(#pinkGlow)" />
    
    <!-- Perspective Grid Lines -->
    <line x1="600" y1="360" x2="-200" y2="630" stroke="#00ffff" stroke-width="2" filter="url(#cyanGlow)" />
    <line x1="600" y1="360" x2="100" y2="630" stroke="#00ffff" stroke-width="2" filter="url(#cyanGlow)" />
    <line x1="600" y1="360" x2="350" y2="630" stroke="#00ffff" stroke-width="2.5" filter="url(#cyanGlow)" />
    <line x1="600" y1="360" x2="500" y2="630" stroke="#ff007f" stroke-width="3.5" filter="url(#pinkGlow)" />
    <line x1="600" y1="360" x2="600" y2="630" stroke="#ffffff" stroke-width="4" filter="url(#cyanGlow)" />
    <line x1="600" y1="360" x2="700" y2="630" stroke="#ff007f" stroke-width="3.5" filter="url(#pinkGlow)" />
    <line x1="600" y1="360" x2="850" y2="630" stroke="#00ffff" stroke-width="2.5" filter="url(#cyanGlow)" />
    <line x1="600" y1="360" x2="1100" y2="630" stroke="#00ffff" stroke-width="2" filter="url(#cyanGlow)" />
    <line x1="600" y1="360" x2="1400" y2="630" stroke="#00ffff" stroke-width="2" filter="url(#cyanGlow)" />

    <!-- Horizontal Grid Lines (Stretched) -->
    <line x1="0" y1="375" x2="1200" y2="375" stroke="#00ffff" stroke-width="1" opacity="0.4" />
    <line x1="0" y1="395" x2="1200" y2="395" stroke="#00ffff" stroke-width="1.2" opacity="0.5" />
    <line x1="0" y1="425" x2="1200" y2="425" stroke="#00ffff" stroke-width="1.5" opacity="0.6" />
    <line x1="0" y1="465" x2="1200" y2="465" stroke="#00ffff" stroke-width="1.8" opacity="0.7" />
    <line x1="0" y1="520" x2="1200" y2="520" stroke="#00ffff" stroke-width="2" opacity="0.8" />
    <line x1="0" y1="590" x2="1200" y2="590" stroke="#00ffff" stroke-width="2.5" opacity="0.9" />
  </g>

  <!-- Synthwave Sun with lines cut out -->
  <g>
    <!-- We use mask or pattern, but we can also draw slices manually for high-perf vector render -->
    <path d="
      M 450,260 A 150,150 0 0,1 750,260 
      M 748,270 L 452,270 
      M 455,280 L 745,280 
      M 740,292 L 460,292 
      M 467,304 L 733,304 
      M 724,318 L 476,318 
      M 488,332 L 712,332 
      M 696,348 L 504,348 
    " fill="url(#sunGrad)" opacity="0.9" />
  </g>

  <!-- Stylized Astronaut Vector Shape running forward -->
  <g transform="translate(600, 395) scale(0.9)" opacity="0.95">
    <!-- Jetpack Fire -->
    <path d="M -25,20 L -20,60 L -15,20 Z" fill="#ff5f1f" filter="url(#textGlow)" />
    <path d="M 25,20 L 20,60 L 15,20 Z" fill="#ff5f1f" filter="url(#textGlow)" />
    <path d="M -23,20 L -20,45 L -17,20 Z" fill="#ffd700" />
    <path d="M 23,20 L 20,45 L 17,20 Z" fill="#ffd700" />

    <!-- Jetpack Body -->
    <rect x="-35" y="-30" width="70" height="50" rx="8" fill="#1e1b29" stroke="#ff007f" stroke-width="2" />
    <line x1="-20" y1="-10" x2="-20" y2="10" stroke="#00ffff" stroke-width="2" filter="url(#cyanGlow)" />
    <line x1="20" y1="-10" x2="20" y2="10" stroke="#00ffff" stroke-width="2" filter="url(#cyanGlow)" />

    <!-- Hips and Legs (dynamic run pose) -->
    <path d="M -15,15 L -25,45 L -10,75" stroke="#111" stroke-width="12" stroke-linecap="round" stroke-linejoin="round" />
    <path d="M -15,15 L -25,45 L -10,75" stroke="#ff007f" stroke-width="8" stroke-linecap="round" stroke-linejoin="round" />
    <circle cx="-10" cy="75" r="7" fill="#00ffff" />

    <path d="M 15,15 L 5,38 L 25,65" stroke="#111" stroke-width="12" stroke-linecap="round" stroke-linejoin="round" />
    <path d="M 15,15 L 5,38 L 25,65" stroke="#ff007f" stroke-width="8" stroke-linecap="round" stroke-linejoin="round" />
    <circle cx="25" cy="65" r="7" fill="#00ffff" />

    <!-- Torso / Chestplate -->
    <path d="M -30,-45 L 30,-45 L 20,15 L -20,15 Z" fill="#181825" stroke="#00ffff" stroke-width="3" />
    <!-- Chest Core Glowing Emblem -->
    <polygon points="0,-30 -12,-12 0,6 12,-12" fill="#00ffff" filter="url(#cyanGlow)" />

    <!-- Pauldrons / Shoulders -->
    <circle cx="-32" cy="-40" r="10" fill="#ff007f" />
    <circle cx="32" cy="-40" r="10" fill="#ff007f" />

    <!-- Arms -->
    <path d="M -32,-40 L -50,-15 L -40,10" stroke="#111" stroke-width="10" stroke-linecap="round" stroke-linejoin="round" />
    <path d="M -32,-40 L -50,-15 L -40,10" stroke="#ff007f" stroke-width="6" stroke-linecap="round" stroke-linejoin="round" />
    <circle cx="-40" cy="10" r="5" fill="#00ffff" />

    <path d="M 32,-40 L 52,-20 L 48,12" stroke="#111" stroke-width="10" stroke-linecap="round" stroke-linejoin="round" />
    <path d="M 32,-40 L 52,-20 L 48,12" stroke="#ff007f" stroke-width="6" stroke-linecap="round" stroke-linejoin="round" />
    <circle cx="48" cy="12" r="5" fill="#00ffff" />

    <!-- Helmet and Visor -->
    <circle cx="0" cy="-70" r="22" fill="#1e1b29" stroke="#ff007f" stroke-width="2.5" />
    <path d="M -18,-70 A 18,18 0 0,1 18,-70 L 14,-58 A 18,18 0 0,1 -14,-58 Z" fill="#00ffff" filter="url(#cyanGlow)" opacity="0.9" />
    <!-- Helmet Antenna -->
    <line x1="0" y1="-92" x2="0" y2="-102" stroke="#ff007f" stroke-width="3" />
    <circle cx="0" cy="-104" r="3" fill="#00ffff" filter="url(#cyanGlow)" />
  </g>

  <!-- Title Text Layer with Retro Synthwave Styling -->
  <g transform="translate(600, 150)" text-anchor="middle">
    <!-- Drop Shadow / Glow for Title -->
    <text x="0" y="0" font-family="'Space Grotesk', 'Impact', 'Inter', sans-serif" font-weight="900" font-size="68" fill="#ff007f" letter-spacing="12" filter="url(#pinkGlow)" opacity="0.9">
      INFUSE GALAXY RUN
    </text>
    <text x="3" y="3" font-family="'Space Grotesk', 'Impact', 'Inter', sans-serif" font-weight="900" font-size="68" fill="#ffd700" letter-spacing="12" filter="url(#cyanGlow)" opacity="0.8">
      INFUSE GALAXY RUN
    </text>
    <!-- Crisp Foreground Title -->
    <text x="0" y="0" font-family="'Space Grotesk', 'Impact', 'Inter', sans-serif" font-weight="900" font-size="68" fill="#ffffff" letter-spacing="12">
      INFUSE GALAXY RUN
    </text>

    <!-- Subtitle -->
    <text x="0" y="52" font-family="'JetBrains Mono', 'Courier New', monospace" font-weight="bold" font-size="16" fill="#00ffff" letter-spacing="8" filter="url(#cyanGlow)">
      HIGH-SPEED RETRO SYNTHWAVE RUNNER
    </text>
  </g>

  <!-- Decorative Corner Brackets / Vector UI elements -->
  <g stroke="#00ffff" stroke-width="2" fill="none" opacity="0.6">
    <!-- Top-Left Corner -->
    <path d="M 40,40 L 80,40 M 40,40 L 40,80" />
    <!-- Top-Right Corner -->
    <path d="M 1160,40 L 1120,40 M 1160,40 L 1160,80" />
    <!-- Bottom-Left Corner -->
    <path d="M 40,590 L 80,590 M 40,590 L 40,550" />
    <!-- Bottom-Right Corner -->
    <path d="M 1160,590 L 1120,590 M 1160,590 L 1160,550" />
  </g>
  
  <!-- UI status items -->
  <text x="60" y="75" font-family="'JetBrains Mono', monospace" font-size="12" fill="#ff007f" font-weight="bold" letter-spacing="2">SYS_ONLINE: 100%</text>
  <text x="1140" y="75" font-family="'JetBrains Mono', monospace" font-size="12" fill="#00ffff" font-weight="bold" letter-spacing="2" text-anchor="end">FPS: 60 // SYNC: ACTIVE</text>
</svg>
